<svg width="952" height="149" viewBox="0 0 952 149" fill="none" xmlns="http://www.w3.org/2000/svg">
<path d="M60.1356 25.7642L7.98896 106.352C4.54461 111.675 8.36536 118.698 14.7054 118.698H163.505C165.733 118.698 167.861 119.627 169.375 121.263L190.125 143.674C191.639 145.309 193.767 146.239 195.995 146.239H662.8C665.43 146.239 667.892 144.946 669.385 142.782L683.615 122.155C685.108 119.99 687.57 118.698 690.2 118.698H810.391C813.244 118.698 815.881 117.178 817.312 114.71L864.035 34.123C867.127 28.7897 863.279 22.1104 857.114 22.1104H562.816C560.993 22.1104 559.226 22.7326 557.805 23.8741L534.195 42.8449C532.774 43.9864 531.007 44.6086 529.184 44.6086H222C217.582 44.6086 214 41.0269 214 36.6086V30.1104C214 25.6921 210.418 22.1104 206 22.1104H66.8521C64.1385 22.1104 61.6099 23.486 60.1356 25.7642Z" fill="#C1C1C1" stroke="white" stroke-width="4"/>
<path d="M66.1356 18.3941L13.989 98.9815C10.5446 104.304 14.3654 111.328 20.7054 111.328H169.505C171.733 111.328 173.861 112.257 175.375 113.892L196.125 136.304C197.639 137.939 199.767 138.869 201.995 138.869H668.8C671.43 138.869 673.892 137.576 675.385 135.412L689.615 114.785C691.108 112.62 693.57 111.328 696.2 111.328H816.391C819.244 111.328 821.881 109.808 823.312 107.34L870.035 26.7529C873.127 21.4195 869.279 14.7402 863.114 14.7402H568.573C566.9 14.7402 565.269 15.265 563.909 16.2406L548.091 27.5922C546.731 28.5678 545.1 29.0926 543.427 29.0926H227.176C223.213 29.0926 220 25.8797 220 21.9164C220 17.9531 216.787 14.7402 212.824 14.7402H72.8521C70.1385 14.7402 67.6099 16.1158 66.1356 18.3941Z" fill="white" stroke="black" stroke-width="4"/>
<path d="M846.521 20.837C854.339 20.3459 860.405 27.0576 857.144 32.5927L849.556 45.4738C846.455 50.7368 837.154 50.9904 832.586 45.9365L821.979 34.1982C817.412 29.1443 820.89 22.4467 828.325 21.9798L846.521 20.837Z" fill="#D9D9D9"/>
<path d="M36.0264 80.5924C39.5225 75.7843 46.6763 75.6897 50.3817 80.4025L59.3901 91.8599C64.0036 97.7276 59.9619 106.282 52.5295 106.38L35.0216 106.612C27.5893 106.71 23.1739 98.2678 27.5269 92.2814L36.0264 80.5924Z" fill="#D9D9D9"/>
<path d="M625 30.6442H560.5L572 20.5588H635.5L625 30.6442Z" stroke="black"/>
<path d="M657 31.0321H636L646.5 20.9467H657V31.0321Z" stroke="black"/>
<path d="M660.233 131H604.843C603.186 131 601.843 129.657 601.843 128V118C601.843 116.343 603.186 115 604.843 115H669.254C671.852 115 673.222 118.08 671.481 120.009L662.46 130.009C661.892 130.64 661.082 131 660.233 131Z" fill="#D9D9D9"/>
<path d="M589.885 115H571C569.343 115 568 116.343 568 118V128C568 129.657 569.343 131 571 131H589.885C591.542 131 592.885 129.657 592.885 128V118C592.885 116.343 591.542 115 589.885 115Z" fill="#D9D9D9"/>
<path d="M891.039 25.3566C892.268 23.2598 895.208 23.0239 896.756 24.8979L946.924 85.6265C948.595 87.6499 947.528 90.7248 944.962 91.2772L846.79 112.415C843.812 113.056 841.493 109.851 843.034 107.223L891.039 25.3566Z" fill="#C1C1C1" stroke="white"/>
<path d="M884.039 22.6412C885.268 20.5444 888.208 20.3086 889.756 22.1826L939.924 82.9112C941.595 84.9345 940.528 88.0095 937.962 88.5619L839.79 109.699C836.812 110.341 834.493 107.135 836.034 104.507L884.039 22.6412Z" fill="white" stroke="black"/>
<path d="M915.347 66.6334C916.635 64.5078 919.665 64.3635 921.149 66.357L932.035 80.9853C933.564 83.0397 932.441 85.9867 929.933 86.503L907.374 91.1469C904.382 91.7629 902.092 88.5185 903.675 85.9056L915.347 66.6334Z" stroke="#FF0000"/>
</svg>
