<svg width="468" height="91" viewBox="0 0 468 91" fill="none" xmlns="http://www.w3.org/2000/svg">
<path d="M31.5 86.5L37.5 91H70.5789L76.0263 87H391.974L397.421 91H414.5L429 84L441 79V75H27V83L31.5 86.5Z" fill="#AAAAAA"/>
<g filter="url(#filter0_d_2066_2)">
<path d="M453.338 75.875L442.675 79L421.351 79L421.351 -2.64903e-06L442.676 -1.32452e-06L453.338 3L464 6.43372L464 12.8674L453.338 14.3636L453.338 64.5865L464 66.1326L464 72.5663L453.338 75.875Z" fill="white"/>
<path d="M14.6622 75.875L25.3245 79L46.649 79L46.649 -2.01747e-06L25.3245 -1.00874e-06L14.6622 3L3.99999 6.43372L3.99999 12.8674L14.6622 14.3636L14.6623 64.5865L4 66.1326L4 72.5663L14.6622 75.875Z" fill="white"/>
<rect x="29.1324" width="392.219" height="79" fill="white"/>
</g>
<path d="M27 75H33.5L34 3H28L9 8.5V10.5L21 12.5V66.5L10 68.5V70.5L27 75Z" fill="#BFBFBF"/>
<path d="M441 75H434.5L434 3H440L459 8.5V10.5L447 12.5V66.5L458 68.5V70.5L441 75Z" fill="#BFBFBF"/>
<path d="M25 75H31.5L32 3H26L7 8.5V10.5L19 12.5V66.5L8 68.5V70.5L25 75Z" fill="black"/>
<path d="M443 75H436.5L436 3H442L461 8.5V10.5L449 12.5V66.5L460 68.5V70.5L443 75Z" fill="black"/>
<path d="M42.5 64.2354H44.4118L49 71.5001L48.2353 73.0295L47.4706 74.7501H37.5294L36.7647 73.0295L36 71.5001L40.5882 64.2354H42.5Z" fill="#D9D9D9"/>
<defs>
<filter id="filter0_d_2066_2" x="0" y="0" width="468" height="87" filterUnits="userSpaceOnUse" color-interpolation-filters="sRGB">
<feFlood flood-opacity="0" result="BackgroundImageFix"/>
<feColorMatrix in="SourceAlpha" type="matrix" values="0 0 0 0 0 0 0 0 0 0 0 0 0 0 0 0 0 0 127 0" result="hardAlpha"/>
<feOffset dy="4"/>
<feGaussianBlur stdDeviation="2"/>
<feComposite in2="hardAlpha" operator="out"/>
<feColorMatrix type="matrix" values="0 0 0 0 0 0 0 0 0 0 0 0 0 0 0 0 0 0 0.25 0"/>
<feBlend mode="normal" in2="BackgroundImageFix" result="effect1_dropShadow_2066_2"/>
<feBlend mode="normal" in="SourceGraphic" in2="effect1_dropShadow_2066_2" result="shape"/>
</filter>
</defs>
</svg>
