<svg width="121" height="106" viewBox="0 0 121 106" fill="none" xmlns="http://www.w3.org/2000/svg">
<g filter="url(#filter0_d_2088_4)">
<path d="M29.5745 2.58698C30.4539 0.991154 32.1317 0 33.9537 0H60.5H112C114.761 0 117 2.23858 117 5V93C117 95.7614 114.761 98 112 98H9C6.23858 98 4 95.7614 4 93V50.2864C4 49.4425 4.21357 48.6124 4.62081 47.8733L29.5745 2.58698Z" fill="white"/>
</g>
<path fill-rule="evenodd" clip-rule="evenodd" d="M36.1034 24.1033C31.8334 28.3791 31.8334 35.2508 31.8334 48.9999C31.8334 62.7491 31.8334 69.6237 36.1034 73.8937C40.3792 78.1666 47.2509 78.1666 61 78.1666C74.7492 78.1666 81.6238 78.1666 85.8938 73.8937C90.1667 69.6266 90.1667 62.7491 90.1667 48.9999C90.1667 35.2508 90.1667 28.3762 85.8938 24.1033C81.6267 19.8333 74.7492 19.8333 61 19.8333C47.2509 19.8333 40.3763 19.8333 36.1034 24.1033ZM44.7367 41.7666C45.1081 41.3212 45.6412 41.0415 46.2187 40.989C46.7963 40.9365 47.3711 41.1154 47.8167 41.4866L48.6246 42.1574C50.3892 43.6274 51.8913 44.8787 52.9296 46.0308C54.035 47.2558 54.8955 48.6587 54.8955 50.4583C54.8955 52.2578 54.035 53.6637 52.9296 54.8857C51.8913 56.0378 50.3892 57.2891 48.6246 58.7591L47.8167 59.4299C47.5972 59.622 47.3414 59.7682 47.0646 59.86C46.7877 59.9517 46.4953 59.9872 46.2045 59.9643C45.9137 59.9413 45.6304 59.8605 45.3714 59.7265C45.1123 59.5925 44.8826 59.408 44.6959 59.1839C44.5092 58.9599 44.3691 58.7007 44.284 58.4217C44.1989 58.1427 44.1705 57.8495 44.2004 57.5593C44.2303 57.2692 44.3179 56.988 44.4581 56.7322C44.5983 56.4764 44.7882 56.2512 45.0167 56.0699L45.6992 55.5012C47.6213 53.897 48.8784 52.847 49.6834 51.9545C50.4475 51.1087 50.5205 50.7091 50.5205 50.4583C50.5205 50.2074 50.4475 49.8108 49.6834 48.962C48.8755 48.0695 47.6213 47.0166 45.6992 45.4153L45.0167 44.8466C44.5713 44.4752 44.2916 43.9421 44.2391 43.3645C44.1866 42.787 44.3656 42.2122 44.7367 41.7666ZM77.7709 57.7499C77.7709 58.3301 77.5404 58.8865 77.1302 59.2967C76.7199 59.7069 76.1635 59.9374 75.5834 59.9374H61C60.4199 59.9374 59.8635 59.7069 59.4532 59.2967C59.043 58.8865 58.8125 58.3301 58.8125 57.7499C58.8125 57.1698 59.043 56.6134 59.4532 56.2031C59.8635 55.7929 60.4199 55.5624 61 55.5624H75.5834C76.1635 55.5624 76.7199 55.7929 77.1302 56.2031C77.5404 56.6134 77.7709 57.1698 77.7709 57.7499Z" fill="black"/>
<defs>
<filter id="filter0_d_2088_4" x="0" y="0" width="121" height="106" filterUnits="userSpaceOnUse" color-interpolation-filters="sRGB">
<feFlood flood-opacity="0" result="BackgroundImageFix"/>
<feColorMatrix in="SourceAlpha" type="matrix" values="0 0 0 0 0 0 0 0 0 0 0 0 0 0 0 0 0 0 127 0" result="hardAlpha"/>
<feOffset dy="4"/>
<feGaussianBlur stdDeviation="2"/>
<feComposite in2="hardAlpha" operator="out"/>
<feColorMatrix type="matrix" values="0 0 0 0 0 0 0 0 0 0 0 0 0 0 0 0 0 0 0.25 0"/>
<feBlend mode="normal" in2="BackgroundImageFix" result="effect1_dropShadow_2088_4"/>
<feBlend mode="normal" in="SourceGraphic" in2="effect1_dropShadow_2088_4" result="shape"/>
</filter>
</defs>
</svg>
