<svg width="972" height="440" viewBox="0 0 972 440" fill="none" xmlns="http://www.w3.org/2000/svg">
<path d="M194.571 30.5714H775.429V408.893H194.571V30.5714Z" fill="white"/>
<path d="M194.571 0V30.5714H164L194.571 0Z" fill="white"/>
<path d="M164 408.893H194.571V439.464L164 408.893Z" fill="white"/>
<path d="M775.429 0L806 30.5714H775.429V0Z" fill="white"/>
<path d="M775.429 408.893H806L775.429 439.464V408.893Z" fill="white"/>
<path d="M775.429 0H702.821L695.179 7.64286H565.25L557.607 0H194.571V30.5714H775.429V0Z" fill="white"/>
<path d="M194.571 439.464H255.714L263.357 431.821H706.643L714.286 439.464H775.429V408.893H194.571V439.464Z" fill="white"/>
<path d="M164 30.5714H194.571V408.893H164V219.732L171.643 212.567V85.0268L164 77.8616V30.5714Z" fill="white"/>
<path d="M806 30.5714H775.429V408.893H806V30.5714Z" fill="white"/>
<path d="M874.25 412.8L860.5 425L833 425L833 13L860.5 13L873 27.0775L888 46.7859L888 219L874.25 226.803L874.25 365.697L888 373.5L888 399.25L874.25 412.8Z" fill="white"/>
<path d="M97.7501 412.8L111.5 425L139 425L139 13L111.5 13L99 27.0775L84 46.7859L84.0001 219L97.7501 226.803L97.7501 365.697L84.0001 373.5L84.0001 399.25L97.7501 412.8Z" fill="white"/>
<path d="M958 365.5L944 378L916 378L916 62L944 62L958 74L972 87.7349L972 113.47L958 119.455L958 320.346L972 326.53L972 352.265L958 365.5Z" fill="white"/>
<path d="M14 365.5L28 378L56 378L56 62L28 62L14 74L-2.53758e-05 87.7349L-2.3126e-05 113.47L14 119.455L14 320.346L-4.49962e-06 326.53L-2.24981e-06 352.265L14 365.5Z" fill="white"/>
</svg>
