<svg width="670" height="506" viewBox="0 0 670 506" fill="none" xmlns="http://www.w3.org/2000/svg">
<path d="M80.8897 487.63L81.2769 486.838H82.1579H585.842H586.723L587.11 487.63L595.407 504.588H628.679L639.654 493.64L640.067 493.228H640.651H668.588V423.511L656.862 409.439L5.41183 436.355V469.955L21.1213 487.263L39.3018 504.588H72.5927L80.8897 487.63Z" fill="#BFBFBF" stroke="#E9311F" stroke-width="2.82366"/>
<g filter="url(#filter0_d_28_5)">
<path d="M35.4286 441.026H632.571V32.9739H35.4286V441.026Z" fill="white"/>
<path d="M35.4286 474V441.026H4L35.4286 474Z" fill="white"/>
<path d="M4 32.9739H35.4286V3.05176e-05L4 32.9739Z" fill="white"/>
<path d="M632.571 474L664 441.026H632.571V474Z" fill="white"/>
<path d="M632.571 32.9739H664L632.571 3.05176e-05V32.9739Z" fill="white"/>
<path d="M632.571 474H557.929L550.071 465.757H416.5L408.643 474H35.4286V441.026H632.571V474Z" fill="white"/>
<path d="M35.4286 3.05176e-05H98.2857L106.143 8.24353H561.857L569.714 3.05176e-05H632.571V32.9739H35.4286V3.05176e-05Z" fill="white"/>
<path d="M4 441.026H35.4286V32.9739H4V237L11.8571 244.728V382.291L4 390.02V441.026Z" fill="white"/>
<path d="M664 441.026H632.571V32.9739H664V441.026Z" fill="white"/>
</g>
<g filter="url(#filter1_d_28_5)">
<path d="M53.4286 422.809H612.571V49.1913H53.4286V422.809Z" fill="#888888"/>
<path d="M53.4286 453V422.809H24L53.4286 453Z" fill="#888888"/>
<path d="M24 49.1913H53.4286V19L24 49.1913Z" fill="#888888"/>
<path d="M612.571 453L642 422.809H612.571V453Z" fill="#888888"/>
<path d="M612.571 49.1913H642L612.571 19V49.1913Z" fill="#888888"/>
<path d="M612.571 453H542.679L535.321 445.452H410.25L402.893 453H53.4286V422.809H612.571V453Z" fill="#888888"/>
<path d="M53.4286 19H112.286L119.643 26.5479H546.357L553.714 19H612.571V49.1913H53.4286V19Z" fill="#888888"/>
<path d="M24 422.809H53.4286V49.1913H24V236L31.3571 243.076V369.03L24 376.107V422.809Z" fill="#888888"/>
<path d="M642 422.809H612.571V49.1913H642V422.809Z" fill="#888888"/>
</g>
<defs>
<filter id="filter0_d_28_5" x="0.235119" y="0" width="667.53" height="481.53" filterUnits="userSpaceOnUse" color-interpolation-filters="sRGB">
<feFlood flood-opacity="0" result="BackgroundImageFix"/>
<feColorMatrix in="SourceAlpha" type="matrix" values="0 0 0 0 0 0 0 0 0 0 0 0 0 0 0 0 0 0 127 0" result="hardAlpha"/>
<feOffset dy="3.76488"/>
<feGaussianBlur stdDeviation="1.88244"/>
<feComposite in2="hardAlpha" operator="out"/>
<feColorMatrix type="matrix" values="0 0 0 0 0 0 0 0 0 0 0 0 0 0 0 0 0 0 0.25 0"/>
<feBlend mode="normal" in2="BackgroundImageFix" result="effect1_dropShadow_28_5"/>
<feBlend mode="normal" in="SourceGraphic" in2="effect1_dropShadow_28_5" result="shape"/>
</filter>
<filter id="filter1_d_28_5" x="20.5584" y="19" width="624.883" height="440.883" filterUnits="userSpaceOnUse" color-interpolation-filters="sRGB">
<feFlood flood-opacity="0" result="BackgroundImageFix"/>
<feColorMatrix in="SourceAlpha" type="matrix" values="0 0 0 0 0 0 0 0 0 0 0 0 0 0 0 0 0 0 127 0" result="hardAlpha"/>
<feOffset dy="3.44157"/>
<feGaussianBlur stdDeviation="1.72079"/>
<feComposite in2="hardAlpha" operator="out"/>
<feColorMatrix type="matrix" values="0 0 0 0 0 0 0 0 0 0 0 0 0 0 0 0 0 0 0.25 0"/>
<feBlend mode="normal" in2="BackgroundImageFix" result="effect1_dropShadow_28_5"/>
<feBlend mode="normal" in="SourceGraphic" in2="effect1_dropShadow_28_5" result="shape"/>
</filter>
</defs>
</svg>
