<svg width="121" height="106" viewBox="0 0 121 106" fill="none" xmlns="http://www.w3.org/2000/svg">
<g filter="url(#filter0_d_2088_2)">
<path d="M29.5745 2.58698C30.4539 0.991154 32.1317 0 33.9537 0H60.5H112C114.761 0 117 2.23858 117 5V93C117 95.7614 114.761 98 112 98H9C6.23858 98 4 95.7614 4 93V50.2864C4 49.4425 4.21357 48.6124 4.62081 47.8733L29.5745 2.58698Z" fill="white"/>
</g>
<path d="M66.3333 75.6667V67.4667L81.0666 52.8001C81.4666 52.4001 81.911 52.1112 82.3999 51.9334C82.8888 51.7556 83.3777 51.6667 83.8666 51.6667C84.3999 51.6667 84.911 51.7672 85.3999 51.9681C85.8888 52.169 86.3333 52.4685 86.7333 52.8667L89.1999 55.3334C89.5555 55.7334 89.8337 56.1779 90.0346 56.6667C90.2355 57.1556 90.335 57.6445 90.3333 58.1334C90.3315 58.6223 90.2426 59.1227 90.0666 59.6347C89.8906 60.1467 89.6017 60.6019 89.1999 61.0001L74.5333 75.6667H66.3333ZM83.8666 60.7334L86.3333 58.1334L83.8666 55.6667L81.3333 58.2001L83.8666 60.7334ZM39.6666 70.3334C38.1999 70.3334 36.9448 69.8116 35.9013 68.7681C34.8577 67.7245 34.335 66.4685 34.3333 65.0001V33.0001C34.3333 31.5334 34.8559 30.2783 35.9013 29.2347C36.9466 28.1912 38.2017 27.6685 39.6666 27.6667H55.6666L60.9999 33.0001H82.3333C83.7999 33.0001 85.0559 33.5227 86.1013 34.5681C87.1466 35.6134 87.6684 36.8685 87.6666 38.3334V47.1334C87.0444 46.8667 86.3999 46.6667 85.7333 46.5334C85.0666 46.4001 84.3999 46.3334 83.7333 46.3334C82.4888 46.3334 81.3226 46.5556 80.2346 47.0001C79.1466 47.4445 78.1573 48.1112 77.2666 49.0001L60.9999 65.2668V70.3334H39.6666Z" fill="black"/>
<defs>
<filter id="filter0_d_2088_2" x="0" y="0" width="121" height="106" filterUnits="userSpaceOnUse" color-interpolation-filters="sRGB">
<feFlood flood-opacity="0" result="BackgroundImageFix"/>
<feColorMatrix in="SourceAlpha" type="matrix" values="0 0 0 0 0 0 0 0 0 0 0 0 0 0 0 0 0 0 127 0" result="hardAlpha"/>
<feOffset dy="4"/>
<feGaussianBlur stdDeviation="2"/>
<feComposite in2="hardAlpha" operator="out"/>
<feColorMatrix type="matrix" values="0 0 0 0 0 0 0 0 0 0 0 0 0 0 0 0 0 0 0.25 0"/>
<feBlend mode="normal" in2="BackgroundImageFix" result="effect1_dropShadow_2088_2"/>
<feBlend mode="normal" in="SourceGraphic" in2="effect1_dropShadow_2088_2" result="shape"/>
</filter>
</defs>
</svg>
