<svg width="724" height="90" viewBox="0 0 724 90" fill="none" xmlns="http://www.w3.org/2000/svg">
<path d="M317.641 36.5H293.669L283.767 24H255.105" stroke="#E9311F" stroke-width="2"/>
<path d="M319.726 56H297.317L289.5 68H254.063M319.726 21.5H306.176L292.106 44.5H238.95M319.726 85.5H295.754L285.331 76H256.668" stroke="#E9311F" stroke-width="2"/>
<path d="M320.247 76H305.134L287.415 83H250.415" stroke="#E9311F" stroke-width="2"/>
<path d="M319.726 13H299.402L286.894 30.5H276.993L271.781 13H260.316" stroke="#E9311F" stroke-width="2"/>
<path d="M320.247 31H306.176L291.063 15.5H281.162L274.908 6H251.978M320.247 62.5H302.528H286.894L281.162 53.5H257.189" stroke="#E9311F" stroke-width="2"/>
<path d="M322.332 49.5H288.979L283.767 38.5H257.71" stroke="#E9311F" stroke-width="2"/>
<path d="M14.7312 0H274L259.858 22.5L274 45L259.858 65.7391L274 90H14.7312L0 65.7391L14.7312 45L0 21.5217L14.7312 0Z" fill="white"/>
<path d="M327.527 0H678.045L724 22.6957V45V66.1304V90H327.527L305 65.7391L327.527 45L305 21.5217L327.527 0Z" fill="white"/>
</svg>
