<svg width="121" height="106" viewBox="0 0 121 106" fill="none" xmlns="http://www.w3.org/2000/svg">
<g filter="url(#filter0_d_2088_5)">
<path d="M29.5745 2.58698C30.4539 0.991154 32.1317 0 33.9537 0H60.5H112C114.761 0 117 2.23858 117 5V93C117 95.7614 114.761 98 112 98H9C6.23858 98 4 95.7614 4 93V50.2864C4 49.4425 4.21357 48.6124 4.62081 47.8733L29.5745 2.58698Z" fill="white"/>
</g>
<g clip-path="url(#clip0_2088_5)">
<path d="M58.4667 48.5001C58.4667 46.2523 57.6724 44.3333 56.0839 42.7428C54.4953 41.1524 52.5785 40.3572 50.3333 40.3572C48.0882 40.3572 46.1714 41.1524 44.5828 42.7428C42.9943 44.3333 42.2 46.2523 42.2 48.5001C42.2 50.7479 42.9943 52.667 44.5828 54.2574C46.1714 55.8478 48.0882 56.643 50.3333 56.643C52.5785 56.643 54.4953 55.8478 56.0839 54.2574C57.6724 52.667 58.4667 50.7479 58.4667 48.5001ZM82.8667 64.7858C82.8667 63.6831 82.4642 62.7289 81.6594 61.9231C80.8545 61.1173 79.9014 60.7144 78.8 60.7144C77.6986 60.7144 76.7455 61.1173 75.9406 61.9231C75.1358 62.7289 74.7333 63.6831 74.7333 64.7858C74.7333 65.9097 75.1305 66.8692 75.9247 67.6644C76.719 68.4596 77.6774 68.8572 78.8 68.8572C79.9226 68.8572 80.881 68.4596 81.6753 67.6644C82.4695 66.8692 82.8667 65.9097 82.8667 64.7858ZM82.8667 32.2144C82.8667 31.1117 82.4642 30.1575 81.6594 29.3517C80.8545 28.5459 79.9014 28.143 78.8 28.143C77.6986 28.143 76.7455 28.5459 75.9406 29.3517C75.1358 30.1575 74.7333 31.1117 74.7333 32.2144C74.7333 33.3383 75.1305 34.2978 75.9247 35.093C76.719 35.8882 77.6774 36.2858 78.8 36.2858C79.9226 36.2858 80.881 35.8882 81.6753 35.093C82.4695 34.2978 82.8667 33.3383 82.8667 32.2144ZM70.6667 45.6056V51.4901C70.6667 51.7021 70.5925 51.9089 70.4443 52.1103C70.296 52.3118 70.1266 52.4231 69.9359 52.4443L65.0115 53.2077C64.7785 53.9499 64.4396 54.7557 63.9948 55.6251C64.7149 56.643 65.6681 57.8623 66.8542 59.283C67.0024 59.5163 67.0766 59.7283 67.0766 59.9192C67.0766 60.1737 67.0024 60.3751 66.8542 60.5235C66.367 61.1597 65.4933 62.1086 64.2331 63.3704C62.9728 64.6321 62.1415 65.2629 61.7391 65.2629C61.5061 65.2629 61.2837 65.1887 61.0719 65.0403L57.4182 62.1776C56.6345 62.5805 55.8191 62.9091 54.9719 63.1636C54.7389 65.4538 54.4953 67.0972 54.2411 68.0939C54.0929 68.6028 53.7752 68.8572 53.288 68.8572H47.3786C47.1457 68.8572 46.9339 68.7777 46.7432 68.6187C46.5526 68.4596 46.4467 68.2741 46.4255 68.062L45.6948 63.1954C44.9747 62.9834 44.1804 62.6547 43.312 62.2094L39.563 65.0403C39.4148 65.1887 39.203 65.2629 38.9276 65.2629C38.6946 65.2629 38.4722 65.1781 38.2604 65.0085C35.2104 62.1882 33.6854 60.4917 33.6854 59.9192C33.6854 59.7283 33.7595 59.5269 33.9078 59.3148C34.1196 59.018 34.5538 58.456 35.2104 57.629C35.867 56.802 36.3648 56.1552 36.7036 55.6887C36.2165 54.7557 35.8458 53.8863 35.5917 53.0805L30.7625 52.3171C30.5507 52.2959 30.3707 52.1951 30.2224 52.0149C30.0741 51.8346 30 51.6279 30 51.3946V45.5101C30 45.2981 30.0741 45.0913 30.2224 44.8899C30.3707 44.6884 30.5401 44.5771 30.7307 44.5559L35.6552 43.7925C35.8882 43.0503 36.2271 42.2445 36.6719 41.3751C35.9517 40.3572 34.9986 39.1379 33.8125 37.7172C33.6642 37.4839 33.5901 37.2719 33.5901 37.081C33.5901 36.8266 33.6642 36.6145 33.8125 36.4449C34.2785 35.8087 35.1469 34.8651 36.4177 33.6139C37.6885 32.3628 38.5252 31.7373 38.9276 31.7373C39.1606 31.7373 39.383 31.8115 39.5948 31.9599L43.2484 34.8226C43.9686 34.441 44.784 34.1017 45.6948 33.8048C45.9278 31.5146 46.1714 29.8818 46.4255 28.9064C46.5738 28.3974 46.8915 28.143 47.3786 28.143H53.288C53.521 28.143 53.7328 28.2225 53.9234 28.3815C54.1141 28.5406 54.22 28.7261 54.2411 28.9382L54.9719 33.8048C55.692 34.0168 56.4863 34.3455 57.3547 34.7908L61.1036 31.9599C61.2731 31.8115 61.4849 31.7373 61.7391 31.7373C61.972 31.7373 62.1944 31.8221 62.4062 31.9917C65.4562 34.812 66.9813 36.5085 66.9813 37.081C66.9813 37.2507 66.9071 37.4521 66.7589 37.6854C66.5047 38.0247 66.0599 38.5972 65.4245 39.403C64.7891 40.2088 64.3125 40.845 63.9948 41.3115C64.4819 42.3293 64.842 43.1988 65.075 43.9197L69.9042 44.6513C70.116 44.6937 70.296 44.8051 70.4443 44.9853C70.5925 45.1656 70.6667 45.3723 70.6667 45.6056ZM91 62.5593V67.0124C91 67.3517 89.422 67.6803 86.2661 67.9984C86.012 68.571 85.6943 69.1223 85.313 69.6524C86.3932 72.0486 86.9333 73.5118 86.9333 74.042C86.9333 74.1268 86.891 74.201 86.8062 74.2646C84.2222 75.7702 82.909 76.523 82.8667 76.523C82.6972 76.523 82.2101 76.0247 81.4052 75.028C80.6003 74.0313 80.0497 73.3104 79.7531 72.8651C79.3295 72.9075 79.0118 72.9287 78.8 72.9287C78.5882 72.9287 78.2705 72.9075 77.8469 72.8651C77.5503 73.3104 76.9997 74.0313 76.1948 75.028C75.3899 76.0247 74.9028 76.523 74.7333 76.523C74.691 76.523 73.3778 75.7702 70.7938 74.2646C70.709 74.201 70.6667 74.1268 70.6667 74.042C70.6667 73.5118 71.2068 72.0486 72.287 69.6524C71.9057 69.1223 71.588 68.571 71.3339 67.9984C68.178 67.6803 66.6 67.3517 66.6 67.0124V62.5593C66.6 62.22 68.178 61.8913 71.3339 61.5732C71.6092 60.9582 71.9269 60.4069 72.287 59.9192C71.2068 57.523 70.6667 56.0598 70.6667 55.5297C70.6667 55.4449 70.709 55.3706 70.7938 55.307C70.8785 55.2646 71.2491 55.0526 71.9057 54.6709C72.5623 54.2892 73.1872 53.9287 73.7802 53.5894C74.3733 53.2501 74.691 53.0805 74.7333 53.0805C74.9028 53.0805 75.3899 53.5735 76.1948 54.5595C76.9997 55.5456 77.5503 56.2613 77.8469 56.7066C78.2705 56.6642 78.5882 56.643 78.8 56.643C79.0118 56.643 79.3295 56.6642 79.7531 56.7066C80.8333 55.201 81.8076 54.0135 82.676 53.1441L82.8667 53.0805C82.9514 53.0805 84.2646 53.8226 86.8062 55.307C86.891 55.3706 86.9333 55.4449 86.9333 55.5297C86.9333 56.0598 86.3932 57.523 85.313 59.9192C85.6731 60.4069 85.9908 60.9582 86.2661 61.5732C89.422 61.8913 91 62.22 91 62.5593ZM91 29.9878V34.441C91 34.7802 89.422 35.1089 86.2661 35.427C86.012 35.9995 85.6943 36.5509 85.313 37.081C86.3932 39.4772 86.9333 40.9404 86.9333 41.4705C86.9333 41.5553 86.891 41.6296 86.8062 41.6932C84.2222 43.1988 82.909 43.9516 82.8667 43.9516C82.6972 43.9516 82.2101 43.4532 81.4052 42.4566C80.6003 41.4599 80.0497 40.7389 79.7531 40.2936C79.3295 40.336 79.0118 40.3572 78.8 40.3572C78.5882 40.3572 78.2705 40.336 77.8469 40.2936C77.5503 40.7389 76.9997 41.4599 76.1948 42.4566C75.3899 43.4532 74.9028 43.9516 74.7333 43.9516C74.691 43.9516 73.3778 43.1988 70.7938 41.6932C70.709 41.6296 70.6667 41.5553 70.6667 41.4705C70.6667 40.9404 71.2068 39.4772 72.287 37.081C71.9057 36.5509 71.588 35.9995 71.3339 35.427C68.178 35.1089 66.6 34.7802 66.6 34.441V29.9878C66.6 29.6485 68.178 29.3199 71.3339 29.0018C71.6092 28.3868 71.9269 27.8355 72.287 27.3478C71.2068 24.9516 70.6667 23.4884 70.6667 22.9583C70.6667 22.8734 70.709 22.7992 70.7938 22.7356C70.8785 22.6932 71.2491 22.4811 71.9057 22.0994C72.5623 21.7177 73.1872 21.3572 73.7802 21.018C74.3733 20.6787 74.691 20.509 74.7333 20.509C74.9028 20.509 75.3899 21.0021 76.1948 21.9881C76.9997 22.9742 77.5503 23.6898 77.8469 24.1351C78.2705 24.0927 78.5882 24.0715 78.8 24.0715C79.0118 24.0715 79.3295 24.0927 79.7531 24.1351C80.8333 22.6296 81.8076 21.4421 82.676 20.5726L82.8667 20.509C82.9514 20.509 84.2646 21.2512 86.8062 22.7356C86.891 22.7992 86.9333 22.8734 86.9333 22.9583C86.9333 23.4884 86.3932 24.9516 85.313 27.3478C85.6731 27.8355 85.9908 28.3868 86.2661 29.0018C89.422 29.3199 91 29.6485 91 29.9878Z" fill="black"/>
</g>
<defs>
<filter id="filter0_d_2088_5" x="0" y="0" width="121" height="106" filterUnits="userSpaceOnUse" color-interpolation-filters="sRGB">
<feFlood flood-opacity="0" result="BackgroundImageFix"/>
<feColorMatrix in="SourceAlpha" type="matrix" values="0 0 0 0 0 0 0 0 0 0 0 0 0 0 0 0 0 0 127 0" result="hardAlpha"/>
<feOffset dy="4"/>
<feGaussianBlur stdDeviation="2"/>
<feComposite in2="hardAlpha" operator="out"/>
<feColorMatrix type="matrix" values="0 0 0 0 0 0 0 0 0 0 0 0 0 0 0 0 0 0 0.25 0"/>
<feBlend mode="normal" in2="BackgroundImageFix" result="effect1_dropShadow_2088_5"/>
<feBlend mode="normal" in="SourceGraphic" in2="effect1_dropShadow_2088_5" result="shape"/>
</filter>
<clipPath id="clip0_2088_5">
<rect width="61" height="57" fill="white" transform="translate(30 20)"/>
</clipPath>
</defs>
</svg>
