<svg width="57" height="57" viewBox="0 0 57 57" fill="none" xmlns="http://www.w3.org/2000/svg">
<g clip-path="url(#clip0_38_96)">
<path d="M28.4999 5.13524C36.1098 5.13524 37.0111 5.1642 40.0163 5.30132C42.7951 5.42813 44.3041 5.89242 45.3085 6.28261C46.6387 6.79962 47.5882 7.41732 48.5854 8.41457C49.5827 9.41181 50.2004 10.3613 50.7173 11.6915C51.1076 12.6959 51.5719 14.2049 51.6987 16.9836C51.8358 19.9889 51.8648 20.8902 51.8648 28.5001C51.8648 36.1099 51.8358 37.0112 51.6987 40.0164C51.5719 42.7952 51.1076 44.3042 50.7173 45.3086C50.2004 46.6388 49.5827 47.5883 48.5854 48.5855C47.5882 49.5828 46.6387 50.2005 45.3085 50.7174C44.3041 51.1077 42.7951 51.572 40.0163 51.6988C37.0116 51.8359 36.1103 51.8649 28.4999 51.8649C20.8896 51.8649 19.9883 51.8359 16.9836 51.6988C14.2048 51.572 12.6958 51.1077 11.6915 50.7174C10.3612 50.2005 9.4117 49.5828 8.41445 48.5855C7.4172 47.5883 6.79951 46.6388 6.28261 45.3086C5.89231 44.3042 5.42802 42.7952 5.3012 40.0166C5.16409 37.0112 5.13513 36.1099 5.13513 28.5001C5.13513 20.8902 5.16409 19.9889 5.3012 16.9837C5.42802 14.2049 5.89231 12.6959 6.28261 11.6915C6.79951 10.3613 7.4172 9.41181 8.41445 8.41457C9.4117 7.41732 10.3612 6.79962 11.6915 6.28261C12.6958 5.89242 14.2048 5.42813 16.9834 5.30132C19.9888 5.1642 20.8901 5.13524 28.4999 5.13524ZM28.4999 0C20.7598 0 19.7893 0.032808 16.7495 0.171506C13.7159 0.309979 11.6442 0.79169 9.8313 1.49627C7.95718 2.22461 6.3678 3.19912 4.7834 4.78351C3.199 6.36791 2.22449 7.95729 1.49616 9.83142C0.791577 11.6443 0.309866 13.716 0.171393 16.7496C0.0326948 19.7893 0 20.7599 0 28.5001C0 36.2402 0.0326948 37.2108 0.171393 40.2505C0.309866 43.2841 0.791577 45.3558 1.49616 47.1687C2.22449 49.0427 3.199 50.6322 4.7834 52.2166C6.3678 53.801 7.95718 54.7755 9.8313 55.5038C11.6442 56.2084 13.7159 56.6901 16.7495 56.8286C19.7893 56.9673 20.7598 57 28.4999 57C36.2401 57 37.2107 56.9673 40.2504 56.8286C43.284 56.6901 45.3557 56.2084 47.1686 55.5038C49.0427 54.7755 50.6321 53.801 52.2165 52.2166C53.8009 50.6322 54.7754 49.0428 55.5037 47.1687C56.2083 45.3558 56.69 43.2841 56.8285 40.2505C56.9672 37.2108 57 36.2402 57 28.5001C57 20.7599 56.9672 19.7893 56.8285 16.7496C56.69 13.716 56.2083 11.6443 55.5037 9.83142C54.7754 7.95729 53.8009 6.36791 52.2165 4.78351C50.6321 3.19912 49.0427 2.22461 47.1686 1.49627C45.3557 0.79169 43.284 0.309979 40.2504 0.171506C37.2107 0.032808 36.2401 0 28.4999 0ZM28.4999 13.8649C20.4172 13.8649 13.8648 20.4173 13.8648 28.5001C13.8648 36.5828 20.4172 43.1352 28.4999 43.1352C36.5827 43.1352 43.1351 36.5828 43.1351 28.5001C43.1351 20.4173 36.5827 13.8649 28.4999 13.8649ZM28.4999 38.0001C23.2533 38.0001 18.9999 33.7467 18.9999 28.5001C18.9999 23.2534 23.2533 19 28.4999 19C33.7466 19 38 23.2534 38 28.5001C38 33.7467 33.7466 38.0001 28.4999 38.0001ZM47.1333 13.2867C47.1333 15.1755 45.6022 16.7067 43.7133 16.7067C41.8245 16.7067 40.2933 15.1755 40.2933 13.2867C40.2933 11.3978 41.8245 9.86671 43.7133 9.86671C45.6022 9.86671 47.1333 11.3978 47.1333 13.2867Z" fill="#0A0A08"/>
</g>
<defs>
<clipPath id="clip0_38_96">
<rect width="57" height="57" fill="white"/>
</clipPath>
</defs>
</svg>
