<svg width="50" height="53" viewBox="0 0 50 53" fill="none" xmlns="http://www.w3.org/2000/svg">
<path d="M16.9238 18.8336L12.2783 0.249105C11.5669 0.0828223 10.8386 -0.000764466 10.108 5.2679e-06C4.52708 5.2679e-06 0.00353333 4.8495 0.00353333 10.8332C-0.00441667 10.6742 0.00353333 10.9922 0.00353333 10.8332C0.00353333 10.6742 -0.203166 25.2148 12.3048 38.6238C24.8128 52.0328 39.1096 52.7536 39.1096 52.7536C38.9585 52.7536 39.258 52.7615 39.1096 52.7536C44.6905 52.7536 49.214 47.9041 49.214 41.9204C49.214 41.0088 49.108 40.121 48.9119 39.273L31.8565 34.3758L29.241 39.5645C29.241 39.5645 24.9824 40.288 18.3018 33.125C11.6238 25.9647 12.3075 21.412 12.3075 21.412L16.9238 18.8336Z" fill="black"/>
</svg>
