<svg width="61" height="57" viewBox="0 0 61 57" fill="none" xmlns="http://www.w3.org/2000/svg">
<g clip-path="url(#clip0_2007_274)">
<path d="M28.4667 28.5001C28.4667 26.2523 27.6724 24.3333 26.0839 22.7428C24.4953 21.1524 22.5785 20.3572 20.3333 20.3572C18.0882 20.3572 16.1714 21.1524 14.5828 22.7428C12.9943 24.3333 12.2 26.2523 12.2 28.5001C12.2 30.7479 12.9943 32.667 14.5828 34.2574C16.1714 35.8478 18.0882 36.643 20.3333 36.643C22.5785 36.643 24.4953 35.8478 26.0839 34.2574C27.6724 32.667 28.4667 30.7479 28.4667 28.5001ZM52.8667 44.7858C52.8667 43.6831 52.4642 42.7289 51.6594 41.9231C50.8545 41.1173 49.9014 40.7144 48.8 40.7144C47.6986 40.7144 46.7455 41.1173 45.9406 41.9231C45.1358 42.7289 44.7333 43.6831 44.7333 44.7858C44.7333 45.9097 45.1305 46.8692 45.9247 47.6644C46.719 48.4596 47.6774 48.8572 48.8 48.8572C49.9226 48.8572 50.881 48.4596 51.6753 47.6644C52.4695 46.8692 52.8667 45.9097 52.8667 44.7858ZM52.8667 12.2144C52.8667 11.1117 52.4642 10.1575 51.6594 9.35167C50.8545 8.54586 49.9014 8.14296 48.8 8.14296C47.6986 8.14296 46.7455 8.54586 45.9406 9.35167C45.1358 10.1575 44.7333 11.1117 44.7333 12.2144C44.7333 13.3383 45.1305 14.2978 45.9247 15.093C46.719 15.8882 47.6774 16.2858 48.8 16.2858C49.9226 16.2858 50.881 15.8882 51.6753 15.093C52.4695 14.2978 52.8667 13.3383 52.8667 12.2144ZM40.6667 25.6056V31.4901C40.6667 31.7021 40.5925 31.9089 40.4443 32.1103C40.296 32.3118 40.1266 32.4231 39.9359 32.4443L35.0115 33.2077C34.7785 33.9499 34.4396 34.7557 33.9948 35.6251C34.7149 36.643 35.6681 37.8623 36.8542 39.283C37.0024 39.5163 37.0766 39.7283 37.0766 39.9192C37.0766 40.1737 37.0024 40.3751 36.8542 40.5235C36.367 41.1597 35.4933 42.1086 34.2331 43.3704C32.9728 44.6321 32.1415 45.2629 31.7391 45.2629C31.5061 45.2629 31.2837 45.1887 31.0719 45.0403L27.4182 42.1776C26.6345 42.5805 25.8191 42.9091 24.9719 43.1636C24.7389 45.4538 24.4953 47.0972 24.2411 48.0939C24.0929 48.6028 23.7752 48.8572 23.288 48.8572H17.3786C17.1457 48.8572 16.9339 48.7777 16.7432 48.6187C16.5526 48.4596 16.4467 48.2741 16.4255 48.062L15.6948 43.1954C14.9747 42.9834 14.1804 42.6547 13.312 42.2094L9.56302 45.0403C9.41476 45.1887 9.20295 45.2629 8.9276 45.2629C8.69462 45.2629 8.47222 45.1781 8.26042 45.0085C5.21042 42.1882 3.68542 40.4917 3.68542 39.9192C3.68542 39.7283 3.75955 39.5269 3.90781 39.3148C4.11962 39.018 4.55382 38.456 5.21042 37.629C5.86701 36.802 6.36476 36.1552 6.70365 35.6887C6.21649 34.7557 5.84583 33.8863 5.59167 33.0805L0.7625 32.3171C0.550694 32.2959 0.37066 32.1951 0.222396 32.0149C0.074132 31.8346 0 31.6279 0 31.3946V25.5101C0 25.2981 0.074132 25.0913 0.222396 24.8899C0.37066 24.6884 0.540104 24.5771 0.730729 24.5559L5.65521 23.7925C5.88819 23.0503 6.22708 22.2445 6.67188 21.3751C5.95174 20.3572 4.99861 19.1379 3.8125 17.7172C3.66424 17.4839 3.5901 17.2719 3.5901 17.081C3.5901 16.8266 3.66424 16.6145 3.8125 16.4449C4.27847 15.8087 5.14687 14.8651 6.41771 13.6139C7.68854 12.3628 8.52517 11.7373 8.9276 11.7373C9.16059 11.7373 9.38299 11.8115 9.59479 11.9599L13.2484 14.8226C13.9686 14.441 14.784 14.1017 15.6948 13.8048C15.9278 11.5146 16.1714 9.8818 16.4255 8.90635C16.5738 8.39743 16.8915 8.14296 17.3786 8.14296H23.288C23.521 8.14296 23.7328 8.22248 23.9234 8.38152C24.1141 8.54056 24.22 8.72611 24.2411 8.93816L24.9719 13.8048C25.692 14.0168 26.4863 14.3455 27.3547 14.7908L31.1036 11.9599C31.2731 11.8115 31.4849 11.7373 31.7391 11.7373C31.972 11.7373 32.1944 11.8221 32.4062 11.9917C35.4562 14.812 36.9813 16.5085 36.9813 17.081C36.9813 17.2507 36.9071 17.4521 36.7589 17.6854C36.5047 18.0247 36.0599 18.5972 35.4245 19.403C34.7891 20.2088 34.3125 20.845 33.9948 21.3115C34.4819 22.3293 34.842 23.1988 35.075 23.9197L39.9042 24.6513C40.116 24.6937 40.296 24.8051 40.4443 24.9853C40.5925 25.1656 40.6667 25.3723 40.6667 25.6056ZM61 42.5593V47.0124C61 47.3517 59.422 47.6803 56.2661 47.9984C56.012 48.571 55.6943 49.1223 55.313 49.6524C56.3932 52.0486 56.9333 53.5118 56.9333 54.042C56.9333 54.1268 56.891 54.201 56.8062 54.2646C54.2222 55.7702 52.909 56.523 52.8667 56.523C52.6972 56.523 52.2101 56.0247 51.4052 55.028C50.6003 54.0313 50.0497 53.3104 49.7531 52.8651C49.3295 52.9075 49.0118 52.9287 48.8 52.9287C48.5882 52.9287 48.2705 52.9075 47.8469 52.8651C47.5503 53.3104 46.9997 54.0313 46.1948 55.028C45.3899 56.0247 44.9028 56.523 44.7333 56.523C44.691 56.523 43.3778 55.7702 40.7938 54.2646C40.709 54.201 40.6667 54.1268 40.6667 54.042C40.6667 53.5118 41.2068 52.0486 42.287 49.6524C41.9057 49.1223 41.588 48.571 41.3339 47.9984C38.178 47.6803 36.6 47.3517 36.6 47.0124V42.5593C36.6 42.22 38.178 41.8913 41.3339 41.5732C41.6092 40.9582 41.9269 40.4069 42.287 39.9192C41.2068 37.523 40.6667 36.0598 40.6667 35.5297C40.6667 35.4449 40.709 35.3706 40.7938 35.307C40.8785 35.2646 41.2491 35.0526 41.9057 34.6709C42.5623 34.2892 43.1872 33.9287 43.7802 33.5894C44.3733 33.2501 44.691 33.0805 44.7333 33.0805C44.9028 33.0805 45.3899 33.5735 46.1948 34.5595C46.9997 35.5456 47.5503 36.2613 47.8469 36.7066C48.2705 36.6642 48.5882 36.643 48.8 36.643C49.0118 36.643 49.3295 36.6642 49.7531 36.7066C50.8333 35.201 51.8076 34.0135 52.676 33.1441L52.8667 33.0805C52.9514 33.0805 54.2646 33.8226 56.8062 35.307C56.891 35.3706 56.9333 35.4449 56.9333 35.5297C56.9333 36.0598 56.3932 37.523 55.313 39.9192C55.6731 40.4069 55.9908 40.9582 56.2661 41.5732C59.422 41.8913 61 42.22 61 42.5593ZM61 9.98783V14.441C61 14.7802 59.422 15.1089 56.2661 15.427C56.012 15.9995 55.6943 16.5509 55.313 17.081C56.3932 19.4772 56.9333 20.9404 56.9333 21.4705C56.9333 21.5553 56.891 21.6296 56.8062 21.6932C54.2222 23.1988 52.909 23.9516 52.8667 23.9516C52.6972 23.9516 52.2101 23.4532 51.4052 22.4566C50.6003 21.4599 50.0497 20.7389 49.7531 20.2936C49.3295 20.336 49.0118 20.3572 48.8 20.3572C48.5882 20.3572 48.2705 20.336 47.8469 20.2936C47.5503 20.7389 46.9997 21.4599 46.1948 22.4566C45.3899 23.4532 44.9028 23.9516 44.7333 23.9516C44.691 23.9516 43.3778 23.1988 40.7938 21.6932C40.709 21.6296 40.6667 21.5553 40.6667 21.4705C40.6667 20.9404 41.2068 19.4772 42.287 17.081C41.9057 16.5509 41.588 15.9995 41.3339 15.427C38.178 15.1089 36.6 14.7802 36.6 14.441V9.98783C36.6 9.64854 38.178 9.31986 41.3339 9.00178C41.6092 8.38682 41.9269 7.83548 42.287 7.34776C41.2068 4.95156 40.6667 3.48839 40.6667 2.95825C40.6667 2.87343 40.709 2.79921 40.7938 2.7356C40.8785 2.69318 41.2491 2.48113 41.9057 2.09943C42.5623 1.71774 43.1872 1.35725 43.7802 1.01796C44.3733 0.678676 44.691 0.509033 44.7333 0.509033C44.9028 0.509033 45.3899 1.00206 46.1948 1.98811C46.9997 2.97416 47.5503 3.68984 47.8469 4.13515C48.2705 4.09274 48.5882 4.07153 48.8 4.07153C49.0118 4.07153 49.3295 4.09274 49.7531 4.13515C50.8333 2.62957 51.8076 1.44207 52.676 0.572649L52.8667 0.509033C52.9514 0.509033 54.2646 1.25122 56.8062 2.7356C56.891 2.79921 56.9333 2.87343 56.9333 2.95825C56.9333 3.48839 56.3932 4.95156 55.313 7.34776C55.6731 7.83548 55.9908 8.38682 56.2661 9.00178C59.422 9.31986 61 9.64854 61 9.98783Z" fill="black"/>
</g>
<defs>
<clipPath id="clip0_2007_274">
<rect width="61" height="57" fill="white"/>
</clipPath>
</defs>
</svg>
