<svg width="1440" height="158" viewBox="0 0 1440 158" fill="none" xmlns="http://www.w3.org/2000/svg">
<path d="M0 0H238.106L254.161 16.25H1185.34L1201.4 0H1440V65H0V0Z" fill="#B7B7B7"/>
<path d="M1442 101H1261.5L1242.5 82H919.5L900.5 101H720H539.5H359H178.5H-2V25H1442V101Z" fill="white"/>
<path d="M1440 81H1260L1241.05 100.25H918.947L900 81H720H540H360H180H0V158H1440V81Z" fill="#666666"/>
<path d="M1440 140H1260L1241.05 121.25H918.947L900 140H720H540H360H180H0V65H1440V140Z" fill="white"/>
<path d="M32.2016 124.591H36.6726L47.4032 107.601L45.6147 104.024L43.8263 100H20.5768L18.7884 104.024L17 107.601L27.7305 124.591H32.2016Z" fill="#C7C7C7"/>
<path d="M31.7148 94.5908H36.1858L46.9163 77.6008L45.1279 74.024L43.3395 70H20.09L18.3016 74.024L16.5132 77.6008L27.2437 94.5908H31.7148Z" fill="#C7C7C7"/>
<path d="M32.2016 64.5908H36.6726L47.4032 47.6008L45.6147 44.024L43.8263 40H20.5768L18.7884 44.024L17 47.6008L27.7305 64.5908H32.2016Z" fill="#C7C7C7"/>
<path d="M85.8522 31L76 54H146.936L156 31H85.8522Z" stroke="#FF0000" stroke-width="2"/>
<path d="M165.852 31L156 54H226.936L236 31H165.852Z" stroke="#FF0000" stroke-width="2"/>
</svg>
