<svg width="381" height="664" viewBox="0 0 381 664" fill="none" xmlns="http://www.w3.org/2000/svg">
<g opacity="0.5">
<path d="M79.8261 647.979L58.9985 628.947C56.8866 627.017 56.8215 623.712 58.8557 621.701L334.434 349.194C336.47 347.181 339.779 347.286 341.683 349.424L362.606 372.916C363.421 373.832 363.872 375.015 363.872 376.241V440.545C363.872 442.26 364.751 443.856 366.202 444.772L378.67 452.647C380.12 453.563 381 455.159 381 456.874V513.045C381 514.547 380.325 515.97 379.161 516.919L365.711 527.891C364.547 528.841 363.872 530.263 363.872 531.766V546.748C363.872 547.773 363.557 548.773 362.97 549.613L331.419 594.749L288.296 647.454C287.346 648.615 285.926 649.288 284.426 649.288H83.199C81.9507 649.288 80.7476 648.821 79.8261 647.979Z" fill="#D9D9D9"/>
<g filter="url(#filter0_d_2007_288)">
<path d="M33.4803 43.4951L49.5826 18.3069C50.5014 16.8696 52.0895 16 53.7954 16H179.97H339.941C342.702 16 344.941 18.2386 344.941 21V324.305V545.19C344.941 546.341 344.543 547.458 343.815 548.35L276.577 630.771C275.627 631.935 274.205 632.611 272.703 632.611H20C17.2386 632.611 15 630.372 15 627.611V546.97V76.4033C15 75.515 15.2366 74.6428 15.6856 73.8763L33.4803 43.4951Z" fill="white"/>
</g>
<path d="M32.1282 80.9515L61.6983 30.4236H330.517V238.851V535.251H32.1282V80.9515Z" fill="#D9D9D9"/>
</g>
<defs>
<filter id="filter0_d_2007_288" x="0.700001" y="0.700001" width="376.541" height="663.211" filterUnits="userSpaceOnUse" color-interpolation-filters="sRGB">
<feFlood flood-opacity="0" result="BackgroundImageFix"/>
<feColorMatrix in="SourceAlpha" type="matrix" values="0 0 0 0 0 0 0 0 0 0 0 0 0 0 0 0 0 0 127 0" result="hardAlpha"/>
<feOffset dx="9" dy="8"/>
<feGaussianBlur stdDeviation="11.65"/>
<feComposite in2="hardAlpha" operator="out"/>
<feColorMatrix type="matrix" values="0 0 0 0 0 0 0 0 0 0 0 0 0 0 0 0 0 0 0.25 0"/>
<feBlend mode="normal" in2="BackgroundImageFix" result="effect1_dropShadow_2007_288"/>
<feBlend mode="normal" in="SourceGraphic" in2="effect1_dropShadow_2007_288" result="shape"/>
</filter>
</defs>
</svg>
