<svg width="468" height="703" viewBox="0 0 468 703" fill="none" xmlns="http://www.w3.org/2000/svg">
<path d="M183.001 2.01648L172.441 16.2175C171.021 18.127 171.143 20.7727 172.734 22.5427L430.673 309.628C433.008 312.226 437.219 311.691 438.829 308.591L454.937 277.584C455.307 276.872 455.5 276.081 455.5 275.279V238.709C455.5 237.601 455.868 236.525 456.546 235.648L466.454 222.852C467.132 221.975 467.5 220.899 467.5 219.791V142.126C467.5 141.069 467.165 140.04 466.544 139.185L456.456 125.315C455.835 124.46 455.5 123.431 455.5 122.374V5C455.5 2.23858 453.261 0 450.5 0H187.013C185.432 0 183.944 0.747767 183.001 2.01648Z" fill="#D9D9D9"/>
<g filter="url(#filter0_d_32_14)">
<path d="M97 41.5L115.023 13.3069C115.942 11.8696 117.53 11 119.236 11H259.5H437.5C440.261 11 442.5 13.2386 442.5 16V353V598.219C442.5 599.371 442.102 600.487 441.374 601.38L366.501 693.161C365.551 694.325 364.128 695 362.626 695H10.4459C6.24595 695 3.91739 690.135 6.55159 686.864L75.3943 601.373C76.1099 600.484 76.5 599.378 76.5 598.237V353V77.8565C76.5 76.9682 76.7366 76.096 77.1856 75.3295L97 41.5Z" fill="white"/>
</g>
<path d="M95.5 83L128.5 27H428.5V258H95.5V83Z" fill="#D9D9D9"/>
<path d="M443.5 536H400.5L367 581H320.5M320.5 581V636.5M320.5 581H248.5L214.5 611H162.5M320.5 636.5L364 695M320.5 636.5H272.5L244.5 661V695M162.5 611L131.5 581H75.5M162.5 611V636.5H131.5L111 619.5H75.5V652M75.5 652L98 671.5H128L147 681.5V695M75.5 652L48 671.5H16" stroke="black"/>
<path d="M324.556 583L325.903 583.778V585.333L324.556 586.111L323.208 585.333V583.778L324.556 583Z" fill="black"/>
<path d="M316.556 583L317.903 583.778V585.333L316.556 586.111L315.208 585.333V583.778L316.556 583Z" fill="black"/>
<path d="M319 577.556L319.778 576.208H321.333L322.111 577.556L321.333 578.903H319.778L319 577.556Z" fill="black"/>
<path d="M323.594 633.837L325.073 633.355L326.23 634.395L325.908 635.917L324.429 636.399L323.272 635.359L323.594 633.837Z" fill="black"/>
<path d="M318.245 639.786L319.724 639.304L320.881 640.344L320.559 641.866L319.079 642.348L317.923 641.307L318.245 639.786Z" fill="black"/>
<path d="M315.831 634.328L315.35 632.848L316.39 631.692L317.912 632.014L318.393 633.493L317.353 634.65L315.831 634.328Z" fill="black"/>
<path d="M77.7644 649.355L79.1037 648.564L80.4585 649.328L80.474 650.883L79.1346 651.675L77.7798 650.91L77.7644 649.355Z" fill="black"/>
<path d="M73.8617 655.762L75.201 654.971L76.5558 655.736L76.5713 657.291L75.2319 658.082L73.8771 657.318L73.8617 655.762Z" fill="black"/>
<path d="M70.3548 651.474L69.5637 650.135L70.328 648.78L71.8835 648.764L72.6746 650.104L71.9103 651.458L70.3548 651.474Z" fill="black"/>
<path d="M166.556 612L167.903 612.778V614.333L166.556 615.111L165.208 614.333V612.778L166.556 612Z" fill="black"/>
<path d="M158.556 612L159.903 612.778V614.333L158.556 615.111L157.208 614.333V612.778L158.556 612Z" fill="black"/>
<path d="M161 606.556L161.778 605.208H163.333L164.111 606.556L163.333 607.903H161.778L161 606.556Z" fill="black"/>
<defs>
<filter id="filter0_d_32_14" x="5.43652" y="11" width="445.063" height="692" filterUnits="userSpaceOnUse" color-interpolation-filters="sRGB">
<feFlood flood-opacity="0" result="BackgroundImageFix"/>
<feColorMatrix in="SourceAlpha" type="matrix" values="0 0 0 0 0 0 0 0 0 0 0 0 0 0 0 0 0 0 127 0" result="hardAlpha"/>
<feOffset dx="4" dy="4"/>
<feGaussianBlur stdDeviation="2"/>
<feComposite in2="hardAlpha" operator="out"/>
<feColorMatrix type="matrix" values="0 0 0 0 0 0 0 0 0 0 0 0 0 0 0 0 0 0 0.25 0"/>
<feBlend mode="normal" in2="BackgroundImageFix" result="effect1_dropShadow_32_14"/>
<feBlend mode="normal" in="SourceGraphic" in2="effect1_dropShadow_32_14" result="shape"/>
</filter>
</defs>
</svg>
