<svg width="1440" height="120" viewBox="0 0 1440 120" fill="none" xmlns="http://www.w3.org/2000/svg">
<path d="M-1 1H51.8175L78.7652 25.6575H184.4L194.101 37H253.925L282.49 14.3151H409.144L458.189 37H504" stroke="#FF1111"/>
<path d="M1439 4H1386.6L1359.87 29.3425H1255.07L1245.44 41H1186.09L1157.76 17.6849H1032.1L983.448 41H938" stroke="#FF1111"/>
<path d="M-3 45.76H31.036L38.5996 37.824H75.8771L94.2458 16H167.72L189.331 45.76H259.564L284.415 26.912H346.004L384.362 78H437.307H507" stroke="#FF1111"/>
<path d="M1440 49.24H1406.3L1398.81 41.176H1361.9L1343.71 19H1270.95L1249.56 49.24H1180.01L1155.4 30.088H1094.42L1056.44 82H1004.01H935" stroke="#FF1111"/>
<path d="M-1 79.191H47.0032L69.6564 62.382H120.356L143.01 79.191H217.981L244.949 62.382H307.515H381.947L413.23 96H447.749L475.256 52H506" stroke="#FF1111"/>
<path d="M1438 82.809H1390.47L1368.04 65.618H1317.84L1295.41 82.809H1221.18L1194.48 65.618H1132.53H1058.83L1027.86 100H993.677L966.44 55H936" stroke="#FF1111"/>
<path d="M1 115H51.7944L92.3219 79.7415H118.8L127.446 90.6667H146.358L169.594 64.3469H219.308L245.786 90.6667H324.679L351.157 69.3129H408.976L428.97 42H456.529L474.901 69.3129H503" stroke="#FF1111"/>
<path d="M1436 119H1385.71L1345.59 83.2585H1319.37L1310.81 94.3333H1292.09L1269.09 67.6531H1219.87L1193.65 94.3333H1115.54L1089.33 72.6871H1032.09L1012.29 45H985.009L966.819 72.6871H939" stroke="#FF1111"/>
</svg>
