<svg width="607" height="376" viewBox="0 0 607 376" fill="none" xmlns="http://www.w3.org/2000/svg">
<path d="M4 370.449C4 373.21 6.23858 375.449 9 375.449H77.6605C78.7718 375.449 79.8513 375.079 80.7287 374.397L85.9555 370.335C86.8329 369.653 87.9125 369.283 89.0237 369.283H220.476C221.588 369.283 222.667 369.653 223.545 370.335L228.771 374.397C229.649 375.079 230.728 375.449 231.839 375.449H305.5H380.875H456.25H531.625H602C604.761 375.449 607 373.21 607 370.449V355.784C607 353.023 604.761 350.784 602 350.784H9.00002C6.23859 350.784 4 353.023 4 355.784V370.449Z" fill="#BABABA"/>
<g filter="url(#filter0_d_2066_3)">
<path d="M4 358.926C4 361.687 6.23858 363.926 9 363.926H77.3482C78.648 363.926 79.8968 363.42 80.8297 362.515L85.8545 357.64C86.7874 356.735 88.0362 356.229 89.336 356.229H220.164C221.464 356.229 222.713 356.735 223.646 357.64L228.67 362.515C229.603 363.42 230.852 363.926 232.152 363.926H305.5H380.875H456.25H531.625H568.19C569.358 363.926 570.49 363.517 571.388 362.769L596.372 341.981C599.968 338.988 597.852 333.137 593.174 333.137H9.00002C6.23859 333.137 4 335.376 4 338.137V358.926Z" fill="white"/>
</g>
<path d="M21.2529 2.29248C22.1733 0.863508 23.7567 0 25.4564 0H79.375H216.279C217.53 0 218.735 0.468616 219.657 1.31342L224.724 5.9561C225.646 6.8009 226.852 7.26951 228.102 7.26951H304.508H382.488C383.687 7.26951 384.846 6.83888 385.753 6.05608L391.369 1.21344C392.277 0.430632 393.436 0 394.634 0H531.625H602C604.761 0 607 2.23858 607 5V24.0781C607 26.8395 604.761 29.0781 602 29.0781H13.168C9.21019 29.0781 6.82133 24.6979 8.96451 21.3705L21.2529 2.29248Z" fill="white"/>
<rect x="4" y="28.673" width="603" height="322.019" rx="5" fill="white"/>
<path d="M28 96H162V228.5L121 260H28V96Z" fill="#D9D9D9"/>
<path d="M180 96H572" stroke="#E9311F" stroke-width="4"/>
<defs>
<filter id="filter0_d_2066_3" x="0" y="333.137" width="602.184" height="38.7886" filterUnits="userSpaceOnUse" color-interpolation-filters="sRGB">
<feFlood flood-opacity="0" result="BackgroundImageFix"/>
<feColorMatrix in="SourceAlpha" type="matrix" values="0 0 0 0 0 0 0 0 0 0 0 0 0 0 0 0 0 0 127 0" result="hardAlpha"/>
<feOffset dy="4"/>
<feGaussianBlur stdDeviation="2"/>
<feComposite in2="hardAlpha" operator="out"/>
<feColorMatrix type="matrix" values="0 0 0 0 0 0 0 0 0 0 0 0 0 0 0 0 0 0 0.25 0"/>
<feBlend mode="normal" in2="BackgroundImageFix" result="effect1_dropShadow_2066_3"/>
<feBlend mode="normal" in="SourceGraphic" in2="effect1_dropShadow_2066_3" result="shape"/>
</filter>
</defs>
</svg>
