<svg width="66" height="66" viewBox="0 0 66 66" fill="none" xmlns="http://www.w3.org/2000/svg">
<g clip-path="url(#clip0_38_103)">
<path d="M51.1211 0H14.8789C6.6615 0 0 6.6615 0 14.8789V51.1211C0 59.3385 6.6615 66 14.8789 66H51.1211C59.3385 66 66 59.3385 66 51.1211V14.8789C66 6.6615 59.3385 0 51.1211 0Z" fill="black"/>
<path d="M54.9986 29.8898C54.9986 20.0435 45.1275 12.0327 32.9938 12.0327C20.8601 12.0327 10.989 20.0435 10.989 29.8898C10.989 38.7173 18.8265 46.1114 29.3906 47.5077C30.1084 47.6624 31.084 47.98 31.3294 48.5926C31.5521 49.1495 31.4758 50.0219 31.4016 50.5829C31.4016 50.5829 31.1438 52.136 31.0881 52.466C30.9911 53.0228 30.6446 54.6419 32.9938 53.654C35.343 52.666 45.6658 46.1918 50.2817 40.8768C53.4703 37.3808 54.9986 33.8251 54.9986 29.8898Z" fill="#D5D5D5"/>
<path d="M47.6769 35.5758H41.4894C41.38 35.5758 41.2751 35.5324 41.1977 35.455C41.1204 35.3777 41.0769 35.2727 41.0769 35.1633V25.5624C41.0769 25.453 41.1204 25.3481 41.1977 25.2707C41.2751 25.1934 41.38 25.1499 41.4894 25.1499H47.6769C47.7863 25.1499 47.8912 25.1934 47.9686 25.2707C48.0459 25.3481 48.0894 25.453 48.0894 25.5624V27.1237C48.0894 27.2331 48.0459 27.338 47.9686 27.4154C47.8912 27.4928 47.7863 27.5362 47.6769 27.5362H43.4756V29.1553H47.6769C47.7863 29.1553 47.8912 29.1987 47.9686 29.2761C48.0459 29.3535 48.0894 29.4584 48.0894 29.5678V31.1435C48.0894 31.2529 48.0459 31.3579 47.9686 31.4352C47.8912 31.5126 47.7863 31.556 47.6769 31.556H43.4756V33.1772H47.6769C47.7863 33.1772 47.8912 33.2206 47.9686 33.298C48.0459 33.3753 48.0894 33.4803 48.0894 33.5897V35.1489C48.0913 35.2043 48.0821 35.2595 48.0622 35.3112C48.0424 35.3629 48.0123 35.4101 47.9738 35.45C47.9353 35.4898 47.8892 35.5215 47.8382 35.5431C47.7872 35.5647 47.7323 35.5759 47.6769 35.5758Z" fill="black"/>
<path d="M24.8096 35.576C24.919 35.576 25.024 35.5325 25.1013 35.4551C25.1787 35.3778 25.2221 35.2729 25.2221 35.1635V33.6042C25.2221 33.4948 25.1787 33.3899 25.1013 33.3125C25.024 33.2352 24.919 33.1917 24.8096 33.1917H20.6083V25.5604C20.6083 25.451 20.5649 25.3461 20.4875 25.2688C20.4101 25.1914 20.3052 25.1479 20.1958 25.1479H18.6283C18.5189 25.1479 18.414 25.1914 18.3366 25.2688C18.2593 25.3461 18.2158 25.451 18.2158 25.5604V35.1573C18.2158 35.2667 18.2593 35.3716 18.3366 35.4489C18.414 35.5263 18.5189 35.5698 18.6283 35.5698H24.8158L24.8096 35.576Z" fill="black"/>
<path d="M28.5305 25.1318H26.9713C26.7389 25.1318 26.5505 25.3202 26.5505 25.5526V35.1556C26.5505 35.388 26.7389 35.5763 26.9713 35.5763H28.5305C28.7629 35.5763 28.9513 35.388 28.9513 35.1556V25.5526C28.9513 25.3202 28.7629 25.1318 28.5305 25.1318Z" fill="black"/>
<path d="M39.1545 25.1318H37.5952C37.4858 25.1318 37.3809 25.1753 37.3035 25.2527C37.2262 25.33 37.1827 25.4349 37.1827 25.5443V31.2492L32.7896 25.3154C32.7796 25.2997 32.7678 25.2852 32.7545 25.2721L32.7298 25.2473L32.7071 25.2288H32.6947L32.672 25.2123H32.6597L32.637 25.1999H32.6225H32.5999H32.5854H32.5607H32.5442H32.5194H32.5029H32.4802H30.89C30.7806 25.1999 30.6757 25.2434 30.5984 25.3207C30.521 25.3981 30.4775 25.503 30.4775 25.6124V35.2154C30.4775 35.3248 30.521 35.4297 30.5984 35.5071C30.6757 35.5844 30.7806 35.6279 30.89 35.6279H32.4514C32.5608 35.6279 32.6657 35.5844 32.743 35.5071C32.8204 35.4297 32.8639 35.3248 32.8639 35.2154V29.4548L37.2632 35.3948C37.292 35.4369 37.3283 35.4733 37.3704 35.5021L37.3952 35.5186H37.4075L37.4282 35.5289H37.4488H37.4632H37.4921C37.5286 35.5379 37.5659 35.5427 37.6035 35.5433H39.1545C39.2639 35.5433 39.3688 35.4999 39.4462 35.4225C39.5235 35.3452 39.567 35.2402 39.567 35.1308V25.5526C39.5681 25.4977 39.5582 25.4432 39.538 25.3922C39.5177 25.3412 39.4875 25.2947 39.4491 25.2556C39.4107 25.2164 39.3649 25.1852 39.3143 25.164C39.2637 25.1428 39.2093 25.1318 39.1545 25.1318Z" fill="black"/>
</g>
<defs>
<clipPath id="clip0_38_103">
<rect width="66" height="66" fill="white"/>
</clipPath>
</defs>
</svg>
