<svg width="60" height="60" viewBox="0 0 60 60" fill="none" xmlns="http://www.w3.org/2000/svg">
<path d="M55.25 0H4.23672C1.89922 0 0 1.92578 0 4.28984V55.2102C0 57.5742 1.89922 59.5 4.23672 59.5H55.25C57.5875 59.5 59.5 57.5742 59.5 55.2102V4.28984C59.5 1.92578 57.5875 0 55.25 0ZM17.9828 51H9.16406V22.6047H17.9961V51H17.9828ZM13.5734 18.7266C10.7445 18.7266 8.46016 16.4289 8.46016 13.6133C8.46016 10.7977 10.7445 8.5 13.5734 8.5C16.3891 8.5 18.6867 10.7977 18.6867 13.6133C18.6867 16.4422 16.4023 18.7266 13.5734 18.7266ZM51.0398 51H42.2211V37.1875C42.2211 33.8937 42.1547 29.657 37.6391 29.657C33.0437 29.657 32.3398 33.243 32.3398 36.9484V51H23.5211V22.6047H31.9812V26.4828H32.1008C33.2828 24.2516 36.1648 21.9008 40.4547 21.9008C49.3797 21.9008 51.0398 27.7844 51.0398 35.4344V51Z" fill="black"/>
</svg>
