<svg width="64" height="64" viewBox="0 0 64 64" fill="none" xmlns="http://www.w3.org/2000/svg">
<path d="M37.3333 58.6667V50.4667L52.0666 35.8001C52.4666 35.4001 52.911 35.1112 53.3999 34.9334C53.8888 34.7556 54.3777 34.6667 54.8666 34.6667C55.3999 34.6667 55.911 34.7672 56.3999 34.9681C56.8888 35.169 57.3333 35.4685 57.7333 35.8667L60.1999 38.3334C60.5555 38.7334 60.8337 39.1779 61.0346 39.6667C61.2355 40.1556 61.335 40.6445 61.3333 41.1334C61.3315 41.6223 61.2426 42.1227 61.0666 42.6347C60.8906 43.1467 60.6017 43.6019 60.1999 44.0001L45.5333 58.6667H37.3333ZM54.8666 43.7334L57.3333 41.1334L54.8666 38.6667L52.3333 41.2001L54.8666 43.7334ZM10.6666 53.3334C9.19992 53.3334 7.94481 52.8116 6.90125 51.7681C5.8577 50.7245 5.33503 49.4685 5.33325 48.0001V16.0001C5.33325 14.5334 5.85592 13.2783 6.90125 12.2347C7.94659 11.1912 9.2017 10.6685 10.6666 10.6667H26.6666L31.9999 16.0001H53.3333C54.7999 16.0001 56.0559 16.5227 57.1013 17.5681C58.1466 18.6134 58.6684 19.8685 58.6666 21.3334V30.1334C58.0444 29.8667 57.3999 29.6667 56.7333 29.5334C56.0666 29.4001 55.3999 29.3334 54.7333 29.3334C53.4888 29.3334 52.3226 29.5556 51.2346 30.0001C50.1466 30.4445 49.1573 31.1112 48.2666 32.0001L31.9999 48.2668V53.3334H10.6666Z" fill="black"/>
</svg>
