<svg width="70" height="70" viewBox="0 0 70 70" fill="none" xmlns="http://www.w3.org/2000/svg">
<path fill-rule="evenodd" clip-rule="evenodd" d="M10.1034 10.1033C5.83337 14.3791 5.83337 21.2508 5.83337 34.9999C5.83337 48.7491 5.83337 55.6237 10.1034 59.8937C14.3792 64.1666 21.2509 64.1666 35 64.1666C48.7492 64.1666 55.6238 64.1666 59.8938 59.8937C64.1667 55.6266 64.1667 48.7491 64.1667 34.9999C64.1667 21.2508 64.1667 14.3762 59.8938 10.1033C55.6267 5.83325 48.7492 5.83325 35 5.83325C21.2509 5.83325 14.3763 5.83325 10.1034 10.1033ZM18.7367 27.7666C19.1081 27.3212 19.6412 27.0415 20.2187 26.989C20.7963 26.9365 21.3711 27.1154 21.8167 27.4866L22.6246 28.1574C24.3892 29.6274 25.8913 30.8787 26.9296 32.0308C28.035 33.2558 28.8955 34.6587 28.8955 36.4583C28.8955 38.2578 28.035 39.6637 26.9296 40.8857C25.8913 42.0378 24.3892 43.2891 22.6246 44.7591L21.8167 45.4299C21.5972 45.622 21.3414 45.7682 21.0646 45.86C20.7877 45.9517 20.4953 45.9872 20.2045 45.9643C19.9137 45.9413 19.6304 45.8605 19.3714 45.7265C19.1123 45.5925 18.8826 45.408 18.6959 45.1839C18.5092 44.9599 18.3691 44.7007 18.284 44.4217C18.1989 44.1427 18.1705 43.8495 18.2004 43.5593C18.2303 43.2692 18.3179 42.988 18.4581 42.7322C18.5983 42.4764 18.7882 42.2512 19.0167 42.0699L19.6992 41.5012C21.6213 39.897 22.8784 38.847 23.6834 37.9545C24.4475 37.1087 24.5205 36.7091 24.5205 36.4583C24.5205 36.2074 24.4475 35.8108 23.6834 34.962C22.8755 34.0695 21.6213 33.0166 19.6992 31.4153L19.0167 30.8466C18.5713 30.4752 18.2916 29.9421 18.2391 29.3645C18.1866 28.787 18.3656 28.2122 18.7367 27.7666ZM51.7709 43.7499C51.7709 44.3301 51.5404 44.8865 51.1302 45.2967C50.7199 45.7069 50.1635 45.9374 49.5834 45.9374H35C34.4199 45.9374 33.8635 45.7069 33.4532 45.2967C33.043 44.8865 32.8125 44.3301 32.8125 43.7499C32.8125 43.1698 33.043 42.6134 33.4532 42.2031C33.8635 41.7929 34.4199 41.5624 35 41.5624H49.5834C50.1635 41.5624 50.7199 41.7929 51.1302 42.2031C51.5404 42.6134 51.7709 43.1698 51.7709 43.7499Z" fill="black"/>
</svg>
